<?xml version="1.0" standalone="no"?>
<!DOCTYPE svg PUBLIC "-//W3C//DTD SVG 20010904//EN"
 "http://www.w3.org/TR/2001/REC-SVG-20010904/DTD/svg10.dtd">
<svg version="1.0" xmlns="http://www.w3.org/2000/svg"
 width="632.000000pt" height="250.000000pt" viewBox="0 0 632.000000 250.000000"
 preserveAspectRatio="xMidYMid meet">

<g transform="translate(0.000000,250.000000) scale(0.100000,-0.100000)"
fill="#c9a537" stroke="none">
<path d="M2945 2409 c-340 -46 -688 -238 -884 -487 -102 -130 -186 -293 -220
-427 l-11 -40 -222 -112 c-509 -256 -841 -495 -981 -706 -134 -201 -65 -341
208 -420 46 -14 28 -15 -267 -16 l-318 -1 0 -55 0 -55 2925 0 2925 0 0 55 0
55 -1112 1 c-865 0 -1109 3 -1095 12 11 7 40 26 66 42 196 126 357 307 453
511 56 119 55 120 -49 73 -259 -117 -731 -290 -1078 -394 -49 -14 -117 -35
-150 -45 -115 -36 -658 -170 -689 -170 -19 0 -21 -16 -3 -23 6 -3 -143 -5
-333 -5 -190 0 -340 1 -335 3 6 2 78 13 160 25 161 22 325 50 433 74 508 113
746 177 1162 316 662 220 1303 512 1695 773 162 108 238 169 350 281 150 151
197 242 181 350 -18 119 -181 206 -446 237 -115 13 -561 7 -685 -10 -38 -5
-108 -14 -155 -21 -47 -6 -168 -24 -270 -41 l-186 -31 -54 34 c-148 94 -348
174 -525 208 -78 15 -401 21 -490 9z m1925 -428 c366 -92 283 -342 -219 -661
-468 -297 -1282 -608 -2004 -766 -402 -87 -799 -128 -1040 -106 -155 14 -218
29 -290 70 -58 32 -97 87 -97 138 0 88 126 243 298 369 89 64 266 175 280 175
5 0 12 -38 15 -84 12 -168 106 -418 201 -531 l32 -38 110 12 c478 54 1228 266
1804 511 159 67 525 247 539 264 5 6 5 39 -1 76 -22 151 -117 362 -224 496
-30 37 -51 71 -47 75 13 13 115 16 363 14 130 -2 255 -8 280 -14z"/>
<path d="M850 2265 c-14 -8 -35 -14 -46 -15 -28 0 -44 -21 -43 -51 1 -13 -8
-46 -20 -74 -26 -58 -45 -191 -37 -253 8 -60 62 -157 107 -193 75 -59 123 -74
244 -74 107 0 112 1 175 35 90 48 183 141 205 205 9 28 23 63 31 80 9 21 10
33 2 42 -17 21 -39 15 -75 -22 -45 -46 -96 -59 -213 -52 -166 11 -228 42 -267
136 -17 39 -21 138 -8 195 6 29 5 40 -6 47 -18 11 -19 11 -49 -6z"/>
<path d="M5417 1053 c-4 -3 -7 -12 -7 -19 0 -7 -4 -24 -10 -38 l-10 -26 -50
19 c-60 23 -75 11 -26 -21 20 -13 34 -27 33 -33 -2 -5 -23 -16 -48 -24 -24 -8
-46 -16 -49 -18 -8 -7 24 -23 48 -23 27 0 27 -8 2 -40 -20 -25 -25 -51 -14
-63 4 -3 25 8 47 26 22 18 42 28 44 22 1 -5 13 -26 25 -45 l21 -35 18 43 c20
47 30 51 66 22 33 -26 38 -20 23 25 -7 20 -10 37 -8 39 1 1 17 8 33 15 l30 13
-42 22 -42 21 24 43 c27 47 18 53 -33 22 -18 -11 -34 -20 -36 -20 -2 0 -7 18
-11 40 -7 39 -14 48 -28 33z"/>
</g>
</svg>
